solid STL generated by MeshLab
  facet normal -9.428090e-01  0.000000e+00  3.333333e-01
    outer loop
      vertex  -0.000000e+00  0.000000e+00  1.000000e+01
      vertex  -3.535534e+00  6.123724e+00  0.000000e+00
      vertex  -3.535534e+00 -6.123724e+00  0.000000e+00
    endloop
  endfacet
  facet normal -9.428090e-01  0.000000e+00 -3.333333e-01
    outer loop
      vertex  -0.000000e+00  0.000000e+00 -1.000000e+01
      vertex  -3.535534e+00 -6.123724e+00  0.000000e+00
      vertex  -3.535534e+00  6.123724e+00  0.000000e+00
    endloop
  endfacet
  facet normal  4.714045e-01  8.164966e-01 -3.333333e-01
    outer loop
      vertex   7.071068e+00  0.000000e+00  0.000000e+00
      vertex  -0.000000e+00  0.000000e+00 -1.000000e+01
      vertex  -3.535534e+00  6.123724e+00  0.000000e+00
    endloop
  endfacet
  facet normal  4.714045e-01  8.164966e-01  3.333333e-01
    outer loop
      vertex   7.071068e+00  0.000000e+00  0.000000e+00
      vertex  -3.535534e+00  6.123724e+00  0.000000e+00
      vertex  -0.000000e+00  0.000000e+00  1.000000e+01
    endloop
  endfacet
  facet normal  4.714045e-01 -8.164966e-01  3.333333e-01
    outer loop
      vertex   7.071068e+00  0.000000e+00  0.000000e+00
      vertex  -0.000000e+00  0.000000e+00  1.000000e+01
      vertex  -3.535534e+00 -6.123724e+00  0.000000e+00
    endloop
  endfacet
  facet normal  4.714045e-01 -8.164966e-01 -3.333333e-01
    outer loop
      vertex   7.071068e+00  0.000000e+00  0.000000e+00
      vertex  -3.535534e+00 -6.123724e+00  0.000000e+00
      vertex  -0.000000e+00  0.000000e+00 -1.000000e+01
    endloop
  endfacet
endsolid vcg
