solid STL generated by MeshLab
  facet normal  5.254782e-01  0.000000e+00  8.508070e-01
    outer loop
      vertex   7.630000e+00 -1.236000e+01  2.000000e+01
      vertex   2.000000e+01 -3.236000e+01  1.236000e+01
      vertex   2.000000e+01 -7.630000e+00  1.236000e+01
    endloop
  endfacet
  facet normal  5.257102e-01  0.000000e+00  8.506637e-01
    outer loop
      vertex   2.000000e+01  7.630000e+00  1.236000e+01
      vertex   2.000000e+01 -7.630000e+00  1.236000e+01
      vertex   4.000000e+01  0.000000e+00  0.000000e+00
    endloop
  endfacet
  facet normal  5.259359e-01 -1.280714e-04  8.505242e-01
    outer loop
      vertex   0.000000e+00 -0.000000e+00  2.472000e+01
      vertex  -1.236000e+01 -2.000000e+01  3.236000e+01
      vertex   7.630000e+00 -1.236000e+01  2.000000e+01
    endloop
  endfacet
  facet normal  5.254782e-01  0.000000e+00  8.508070e-01
    outer loop
      vertex   2.000000e+01  3.236000e+01  1.236000e+01
      vertex   7.630000e+00  1.236000e+01  2.000000e+01
      vertex   2.000000e+01  7.630000e+00  1.236000e+01
    endloop
  endfacet
  facet normal  5.259359e-01  1.280927e-04  8.505242e-01
    outer loop
      vertex  -1.236000e+01  2.000000e+01  3.236000e+01
      vertex   0.000000e+00 -0.000000e+00  2.472000e+01
      vertex   7.630000e+00  1.236000e+01  2.000000e+01
    endloop
  endfacet
  facet normal -8.505242e-01 -5.259359e-01 -1.280714e-04
    outer loop
      vertex  -2.472000e+01  0.000000e+00  0.000000e+00
      vertex  -3.236000e+01  1.236000e+01 -2.000000e+01
      vertex  -2.000000e+01 -7.630000e+00 -1.236000e+01
    endloop
  endfacet
  facet normal -8.508070e-01 -5.254782e-01 -0.000000e+00
    outer loop
      vertex  -1.236000e+01 -2.000000e+01 -7.630000e+00
      vertex  -2.000000e+01 -7.630000e+00 -1.236000e+01
      vertex  -1.236000e+01 -2.000000e+01 -3.236000e+01
    endloop
  endfacet
  facet normal -8.505242e-01 -5.259359e-01  1.280501e-04
    outer loop
      vertex  -2.000000e+01 -7.630000e+00  1.236000e+01
      vertex  -3.236000e+01  1.236000e+01  2.000000e+01
      vertex  -2.472000e+01  0.000000e+00  0.000000e+00
    endloop
  endfacet
  facet normal -8.506637e-01 -5.257102e-01  0.000000e+00
    outer loop
      vertex   0.000000e+00 -4.000000e+01  0.000000e+00
      vertex  -1.236000e+01 -2.000000e+01  7.630000e+00
      vertex  -1.236000e+01 -2.000000e+01 -7.630000e+00
    endloop
  endfacet
  facet normal -8.508070e-01 -5.254782e-01 -0.000000e+00
    outer loop
      vertex  -1.236000e+01 -2.000000e+01  3.236000e+01
      vertex  -2.000000e+01 -7.630000e+00  1.236000e+01
      vertex  -1.236000e+01 -2.000000e+01  7.630000e+00
    endloop
  endfacet
  facet normal  8.508070e-01 -5.254782e-01  0.000000e+00
    outer loop
      vertex   1.236000e+01 -2.000000e+01  7.630000e+00
      vertex   2.000000e+01 -7.630000e+00  1.236000e+01
      vertex   1.236000e+01 -2.000000e+01  3.236000e+01
    endloop
  endfacet
  facet normal  8.505242e-01 -5.259359e-01  1.280714e-04
    outer loop
      vertex   2.472000e+01 -0.000000e+00  0.000000e+00
      vertex   3.236000e+01  1.236000e+01  2.000000e+01
      vertex   2.000000e+01 -7.630000e+00  1.236000e+01
    endloop
  endfacet
  facet normal  8.506637e-01 -5.257102e-01  0.000000e+00
    outer loop
      vertex   1.236000e+01 -2.000000e+01 -7.630000e+00
      vertex   1.236000e+01 -2.000000e+01  7.630000e+00
      vertex   0.000000e+00 -4.000000e+01  0.000000e+00
    endloop
  endfacet
  facet normal  8.505242e-01 -5.259359e-01 -1.280927e-04
    outer loop
      vertex   3.236000e+01  1.236000e+01 -2.000000e+01
      vertex   2.472000e+01 -0.000000e+00  0.000000e+00
      vertex   2.000000e+01 -7.630000e+00 -1.236000e+01
    endloop
  endfacet
  facet normal  8.508070e-01 -5.254782e-01  0.000000e+00
    outer loop
      vertex   1.236000e+01 -2.000000e+01 -3.236000e+01
      vertex   2.000000e+01 -7.630000e+00 -1.236000e+01
      vertex   1.236000e+01 -2.000000e+01 -7.630000e+00
    endloop
  endfacet
  facet normal -1.280501e-04 -8.505242e-01  5.259359e-01
    outer loop
      vertex  -1.236000e+01 -2.000000e+01  7.630000e+00
      vertex  -2.000000e+01 -3.236000e+01 -1.236000e+01
      vertex   0.000000e+00 -2.472000e+01  0.000000e+00
    endloop
  endfacet
  facet normal  1.280501e-04 -8.505242e-01  5.259359e-01
    outer loop
      vertex   1.236000e+01 -2.000000e+01  7.630000e+00
      vertex   0.000000e+00 -2.472000e+01  0.000000e+00
      vertex   2.000000e+01 -3.236000e+01 -1.236000e+01
    endloop
  endfacet
  facet normal  0.000000e+00 -8.508070e-01  5.254782e-01
    outer loop
      vertex  -7.630000e+00 -1.236000e+01  2.000000e+01
      vertex  -3.236000e+01 -1.236000e+01  2.000000e+01
      vertex  -1.236000e+01 -2.000000e+01  7.630000e+00
    endloop
  endfacet
  facet normal  0.000000e+00 -8.508070e-01  5.254782e-01
    outer loop
      vertex   3.236000e+01 -1.236000e+01  2.000000e+01
      vertex   7.630000e+00 -1.236000e+01  2.000000e+01
      vertex   1.236000e+01 -2.000000e+01  7.630000e+00
    endloop
  endfacet
  facet normal  0.000000e+00 -8.506637e-01  5.257102e-01
    outer loop
      vertex   0.000000e+00  0.000000e+00  4.000000e+01
      vertex  -7.630000e+00 -1.236000e+01  2.000000e+01
      vertex   7.630000e+00 -1.236000e+01  2.000000e+01
    endloop
  endfacet
  facet normal -5.259359e-01  1.280501e-04  8.505242e-01
    outer loop
      vertex  -7.630000e+00  1.236000e+01  2.000000e+01
      vertex   0.000000e+00 -0.000000e+00  2.472000e+01
      vertex   1.236000e+01  2.000000e+01  3.236000e+01
    endloop
  endfacet
  facet normal -5.259359e-01 -1.280501e-04  8.505242e-01
    outer loop
      vertex  -7.630000e+00 -1.236000e+01  2.000000e+01
      vertex   1.236000e+01 -2.000000e+01  3.236000e+01
      vertex   0.000000e+00 -0.000000e+00  2.472000e+01
    endloop
  endfacet
  facet normal -5.254782e-01  0.000000e+00  8.508070e-01
    outer loop
      vertex  -2.000000e+01  7.630000e+00  1.236000e+01
      vertex  -7.630000e+00  1.236000e+01  2.000000e+01
      vertex  -2.000000e+01  3.236000e+01  1.236000e+01
    endloop
  endfacet
  facet normal -5.254782e-01  0.000000e+00  8.508070e-01
    outer loop
      vertex  -2.000000e+01 -3.236000e+01  1.236000e+01
      vertex  -7.630000e+00 -1.236000e+01  2.000000e+01
      vertex  -2.000000e+01 -7.630000e+00  1.236000e+01
    endloop
  endfacet
  facet normal -5.257102e-01  0.000000e+00  8.506637e-01
    outer loop
      vertex  -4.000000e+01  0.000000e+00  0.000000e+00
      vertex  -2.000000e+01 -7.630000e+00  1.236000e+01
      vertex  -2.000000e+01  7.630000e+00  1.236000e+01
    endloop
  endfacet
  facet normal  8.508070e-01 -5.254782e-01  0.000000e+00
    outer loop
      vertex  -1.236000e+01  2.000000e+01  7.630000e+00
      vertex  -1.236000e+01  2.000000e+01  3.236000e+01
      vertex  -2.000000e+01  7.630000e+00  1.236000e+01
    endloop
  endfacet
  facet normal  8.505242e-01 -5.259359e-01 -1.280714e-04
    outer loop
      vertex  -2.472000e+01  0.000000e+00  0.000000e+00
      vertex  -2.000000e+01  7.630000e+00  1.236000e+01
      vertex  -3.236000e+01 -1.236000e+01  2.000000e+01
    endloop
  endfacet
  facet normal  8.506637e-01 -5.257102e-01  0.000000e+00
    outer loop
      vertex  -1.236000e+01  2.000000e+01 -7.630000e+00
      vertex   0.000000e+00  4.000000e+01  0.000000e+00
      vertex  -1.236000e+01  2.000000e+01  7.630000e+00
    endloop
  endfacet
  facet normal  8.505242e-01 -5.259359e-01  1.280927e-04
    outer loop
      vertex  -3.236000e+01 -1.236000e+01 -2.000000e+01
      vertex  -2.000000e+01  7.630000e+00 -1.236000e+01
      vertex  -2.472000e+01  0.000000e+00  0.000000e+00
    endloop
  endfacet
  facet normal  8.508070e-01 -5.254782e-01  0.000000e+00
    outer loop
      vertex  -1.236000e+01  2.000000e+01 -3.236000e+01
      vertex  -1.236000e+01  2.000000e+01 -7.630000e+00
      vertex  -2.000000e+01  7.630000e+00 -1.236000e+01
    endloop
  endfacet
  facet normal  1.280501e-04  8.505242e-01  5.259359e-01
    outer loop
      vertex   1.236000e+01  2.000000e+01  7.630000e+00
      vertex   2.000000e+01  3.236000e+01 -1.236000e+01
      vertex   0.000000e+00  2.472000e+01  0.000000e+00
    endloop
  endfacet
  facet normal -1.280501e-04  8.505242e-01  5.259359e-01
    outer loop
      vertex  -1.236000e+01  2.000000e+01  7.630000e+00
      vertex   0.000000e+00  2.472000e+01  0.000000e+00
      vertex  -2.000000e+01  3.236000e+01 -1.236000e+01
    endloop
  endfacet
  facet normal -0.000000e+00  8.508070e-01  5.254782e-01
    outer loop
      vertex   7.630000e+00  1.236000e+01  2.000000e+01
      vertex   3.236000e+01  1.236000e+01  2.000000e+01
      vertex   1.236000e+01  2.000000e+01  7.630000e+00
    endloop
  endfacet
  facet normal -0.000000e+00  8.508070e-01  5.254782e-01
    outer loop
      vertex  -3.236000e+01  1.236000e+01  2.000000e+01
      vertex  -7.630000e+00  1.236000e+01  2.000000e+01
      vertex  -1.236000e+01  2.000000e+01  7.630000e+00
    endloop
  endfacet
  facet normal  0.000000e+00  8.506637e-01  5.257102e-01
    outer loop
      vertex   0.000000e+00  0.000000e+00  4.000000e+01
      vertex   7.630000e+00  1.236000e+01  2.000000e+01
      vertex  -7.630000e+00  1.236000e+01  2.000000e+01
    endloop
  endfacet
  facet normal -1.280501e-04 -8.505242e-01  5.259359e-01
    outer loop
      vertex   1.236000e+01  2.000000e+01 -7.630000e+00
      vertex   2.000000e+01  3.236000e+01  1.236000e+01
      vertex   0.000000e+00  2.472000e+01  0.000000e+00
    endloop
  endfacet
  facet normal  1.280501e-04 -8.505242e-01  5.259359e-01
    outer loop
      vertex  -1.236000e+01  2.000000e+01 -7.630000e+00
      vertex   0.000000e+00  2.472000e+01  0.000000e+00
      vertex  -2.000000e+01  3.236000e+01  1.236000e+01
    endloop
  endfacet
  facet normal  0.000000e+00 -8.508070e-01  5.254782e-01
    outer loop
      vertex   7.630000e+00  1.236000e+01 -2.000000e+01
      vertex   3.236000e+01  1.236000e+01 -2.000000e+01
      vertex   1.236000e+01  2.000000e+01 -7.630000e+00
    endloop
  endfacet
  facet normal  0.000000e+00 -8.508070e-01  5.254782e-01
    outer loop
      vertex  -3.236000e+01  1.236000e+01 -2.000000e+01
      vertex  -7.630000e+00  1.236000e+01 -2.000000e+01
      vertex  -1.236000e+01  2.000000e+01 -7.630000e+00
    endloop
  endfacet
  facet normal  0.000000e+00 -8.506637e-01  5.257102e-01
    outer loop
      vertex   0.000000e+00  0.000000e+00 -4.000000e+01
      vertex   7.630000e+00  1.236000e+01 -2.000000e+01
      vertex  -7.630000e+00  1.236000e+01 -2.000000e+01
    endloop
  endfacet
  facet normal  5.259359e-01 -1.280501e-04 -8.505242e-01
    outer loop
      vertex   7.630000e+00 -1.236000e+01 -2.000000e+01
      vertex  -1.236000e+01 -2.000000e+01 -3.236000e+01
      vertex   0.000000e+00  0.000000e+00 -2.472000e+01
    endloop
  endfacet
  facet normal  5.259359e-01  1.280501e-04 -8.505242e-01
    outer loop
      vertex   7.630000e+00  1.236000e+01 -2.000000e+01
      vertex   0.000000e+00  0.000000e+00 -2.472000e+01
      vertex  -1.236000e+01  2.000000e+01 -3.236000e+01
    endloop
  endfacet
  facet normal  5.254782e-01  0.000000e+00 -8.508070e-01
    outer loop
      vertex   2.000000e+01 -7.630000e+00 -1.236000e+01
      vertex   2.000000e+01 -3.236000e+01 -1.236000e+01
      vertex   7.630000e+00 -1.236000e+01 -2.000000e+01
    endloop
  endfacet
  facet normal  5.254782e-01  0.000000e+00 -8.508070e-01
    outer loop
      vertex   2.000000e+01  3.236000e+01 -1.236000e+01
      vertex   2.000000e+01  7.630000e+00 -1.236000e+01
      vertex   7.630000e+00  1.236000e+01 -2.000000e+01
    endloop
  endfacet
  facet normal  5.257102e-01  0.000000e+00 -8.506637e-01
    outer loop
      vertex   4.000000e+01  0.000000e+00  0.000000e+00
      vertex   2.000000e+01 -7.630000e+00 -1.236000e+01
      vertex   2.000000e+01  7.630000e+00 -1.236000e+01
    endloop
  endfacet
  facet normal -1.280501e-04 -8.505242e-01 -5.259359e-01
    outer loop
      vertex  -1.236000e+01 -2.000000e+01 -7.630000e+00
      vertex   0.000000e+00 -2.472000e+01  0.000000e+00
      vertex  -2.000000e+01 -3.236000e+01  1.236000e+01
    endloop
  endfacet
  facet normal  1.280501e-04 -8.505242e-01 -5.259359e-01
    outer loop
      vertex   1.236000e+01 -2.000000e+01 -7.630000e+00
      vertex   2.000000e+01 -3.236000e+01  1.236000e+01
      vertex   0.000000e+00 -2.472000e+01  0.000000e+00
    endloop
  endfacet
  facet normal -0.000000e+00 -8.508070e-01 -5.254782e-01
    outer loop
      vertex  -7.630000e+00 -1.236000e+01 -2.000000e+01
      vertex  -1.236000e+01 -2.000000e+01 -7.630000e+00
      vertex  -3.236000e+01 -1.236000e+01 -2.000000e+01
    endloop
  endfacet
  facet normal -0.000000e+00 -8.508070e-01 -5.254782e-01
    outer loop
      vertex   3.236000e+01 -1.236000e+01 -2.000000e+01
      vertex   1.236000e+01 -2.000000e+01 -7.630000e+00
      vertex   7.630000e+00 -1.236000e+01 -2.000000e+01
    endloop
  endfacet
  facet normal  0.000000e+00 -8.506637e-01 -5.257102e-01
    outer loop
      vertex   0.000000e+00  0.000000e+00 -4.000000e+01
      vertex   7.630000e+00 -1.236000e+01 -2.000000e+01
      vertex  -7.630000e+00 -1.236000e+01 -2.000000e+01
    endloop
  endfacet
  facet normal -8.505242e-01 -5.259359e-01  1.280714e-04
    outer loop
      vertex   2.472000e+01 -0.000000e+00  0.000000e+00
      vertex   2.000000e+01  7.630000e+00 -1.236000e+01
      vertex   3.236000e+01 -1.236000e+01 -2.000000e+01
    endloop
  endfacet
  facet normal -8.508070e-01 -5.254782e-01 -0.000000e+00
    outer loop
      vertex   1.236000e+01  2.000000e+01 -7.630000e+00
      vertex   1.236000e+01  2.000000e+01 -3.236000e+01
      vertex   2.000000e+01  7.630000e+00 -1.236000e+01
    endloop
  endfacet
  facet normal -8.505242e-01 -5.259359e-01 -1.280501e-04
    outer loop
      vertex   2.000000e+01  7.630000e+00  1.236000e+01
      vertex   2.472000e+01 -0.000000e+00  0.000000e+00
      vertex   3.236000e+01 -1.236000e+01  2.000000e+01
    endloop
  endfacet
  facet normal -8.506637e-01 -5.257102e-01  0.000000e+00
    outer loop
      vertex   0.000000e+00  4.000000e+01  0.000000e+00
      vertex   1.236000e+01  2.000000e+01 -7.630000e+00
      vertex   1.236000e+01  2.000000e+01  7.630000e+00
    endloop
  endfacet
  facet normal -8.508070e-01 -5.254782e-01 -0.000000e+00
    outer loop
      vertex   1.236000e+01  2.000000e+01  3.236000e+01
      vertex   1.236000e+01  2.000000e+01  7.630000e+00
      vertex   2.000000e+01  7.630000e+00  1.236000e+01
    endloop
  endfacet
  facet normal -5.259359e-01  1.280501e-04 -8.505242e-01
    outer loop
      vertex  -7.630000e+00  1.236000e+01 -2.000000e+01
      vertex   1.236000e+01  2.000000e+01 -3.236000e+01
      vertex   0.000000e+00  0.000000e+00 -2.472000e+01
    endloop
  endfacet
  facet normal -5.259359e-01 -1.280501e-04 -8.505242e-01
    outer loop
      vertex  -7.630000e+00 -1.236000e+01 -2.000000e+01
      vertex   0.000000e+00  0.000000e+00 -2.472000e+01
      vertex   1.236000e+01 -2.000000e+01 -3.236000e+01
    endloop
  endfacet
  facet normal -5.254782e-01  0.000000e+00 -8.508070e-01
    outer loop
      vertex  -2.000000e+01  7.630000e+00 -1.236000e+01
      vertex  -2.000000e+01  3.236000e+01 -1.236000e+01
      vertex  -7.630000e+00  1.236000e+01 -2.000000e+01
    endloop
  endfacet
  facet normal -5.254782e-01  0.000000e+00 -8.508070e-01
    outer loop
      vertex  -2.000000e+01 -3.236000e+01 -1.236000e+01
      vertex  -2.000000e+01 -7.630000e+00 -1.236000e+01
      vertex  -7.630000e+00 -1.236000e+01 -2.000000e+01
    endloop
  endfacet
  facet normal -5.257102e-01  0.000000e+00 -8.506637e-01
    outer loop
      vertex  -4.000000e+01  0.000000e+00  0.000000e+00
      vertex  -2.000000e+01  7.630000e+00 -1.236000e+01
      vertex  -2.000000e+01 -7.630000e+00 -1.236000e+01
    endloop
  endfacet
  facet normal -9.341708e-01  0.000000e+00 -3.568261e-01
    outer loop
      vertex   0.000000e+00  0.000000e+00  4.000000e+01
      vertex   2.000000e+01  3.236000e+01 -1.236000e+01
      vertex   2.000000e+01 -3.236000e+01 -1.236000e+01
    endloop
  endfacet
  facet normal  5.773503e-01 -5.773503e-01  5.773503e-01
    outer loop
      vertex  -3.236000e+01  1.236000e+01  2.000000e+01
      vertex  -1.236000e+01 -2.000000e+01 -3.236000e+01
      vertex   2.000000e+01  3.236000e+01 -1.236000e+01
    endloop
  endfacet
  facet normal  5.773503e-01  5.773503e-01 -5.773503e-01
    outer loop
      vertex   3.236000e+01  1.236000e+01  2.000000e+01
      vertex   1.236000e+01 -2.000000e+01 -3.236000e+01
      vertex  -2.000000e+01  3.236000e+01 -1.236000e+01
    endloop
  endfacet
  facet normal  0.000000e+00  3.568261e-01 -9.341708e-01
    outer loop
      vertex  -3.236000e+01 -1.236000e+01 -2.000000e+01
      vertex   0.000000e+00  4.000000e+01  0.000000e+00
      vertex   3.236000e+01 -1.236000e+01 -2.000000e+01
    endloop
  endfacet
  facet normal  0.000000e+00  3.568261e-01  9.341708e-01
    outer loop
      vertex   3.236000e+01  1.236000e+01 -2.000000e+01
      vertex  -3.236000e+01  1.236000e+01 -2.000000e+01
      vertex   0.000000e+00 -4.000000e+01  0.000000e+00
    endloop
  endfacet
  facet normal  0.000000e+00 -3.568261e-01  9.341708e-01
    outer loop
      vertex  -3.236000e+01  1.236000e+01  2.000000e+01
      vertex   0.000000e+00 -4.000000e+01  0.000000e+00
      vertex   3.236000e+01  1.236000e+01  2.000000e+01
    endloop
  endfacet
  facet normal  0.000000e+00 -3.568261e-01 -9.341708e-01
    outer loop
      vertex  -3.236000e+01 -1.236000e+01  2.000000e+01
      vertex   0.000000e+00  4.000000e+01  0.000000e+00
      vertex   3.236000e+01 -1.236000e+01  2.000000e+01
    endloop
  endfacet
  facet normal -5.773503e-01  5.773503e-01  5.773503e-01
    outer loop
      vertex   3.236000e+01 -1.236000e+01  2.000000e+01
      vertex   1.236000e+01  2.000000e+01 -3.236000e+01
      vertex  -2.000000e+01 -3.236000e+01 -1.236000e+01
    endloop
  endfacet
  facet normal -9.341708e-01  0.000000e+00  3.568261e-01
    outer loop
      vertex  -2.000000e+01  3.236000e+01 -1.236000e+01
      vertex  -2.000000e+01 -3.236000e+01 -1.236000e+01
      vertex   0.000000e+00  0.000000e+00  4.000000e+01
    endloop
  endfacet
  facet normal  3.568261e-01  9.341708e-01  0.000000e+00
    outer loop
      vertex  -1.236000e+01  2.000000e+01  3.236000e+01
      vertex   4.000000e+01  0.000000e+00  0.000000e+00
      vertex  -1.236000e+01  2.000000e+01 -3.236000e+01
    endloop
  endfacet
  facet normal -5.773503e-01 -5.773503e-01 -5.773503e-01
    outer loop
      vertex  -3.236000e+01 -1.236000e+01  2.000000e+01
      vertex  -1.236000e+01  2.000000e+01 -3.236000e+01
      vertex   2.000000e+01 -3.236000e+01 -1.236000e+01
    endloop
  endfacet
  facet normal -9.341708e-01  0.000000e+00  3.568261e-01
    outer loop
      vertex   2.000000e+01  3.236000e+01  1.236000e+01
      vertex   0.000000e+00  0.000000e+00 -4.000000e+01
      vertex   2.000000e+01 -3.236000e+01  1.236000e+01
    endloop
  endfacet
  facet normal  3.568261e-01  9.341708e-01  0.000000e+00
    outer loop
      vertex   1.236000e+01 -2.000000e+01  3.236000e+01
      vertex   1.236000e+01 -2.000000e+01 -3.236000e+01
      vertex  -4.000000e+01  0.000000e+00  0.000000e+00
    endloop
  endfacet
  facet normal -3.568261e-01  9.341708e-01  0.000000e+00
    outer loop
      vertex   1.236000e+01  2.000000e+01 -3.236000e+01
      vertex  -4.000000e+01  0.000000e+00  0.000000e+00
      vertex   1.236000e+01  2.000000e+01  3.236000e+01
    endloop
  endfacet
  facet normal -3.568261e-01  9.341708e-01  0.000000e+00
    outer loop
      vertex  -1.236000e+01 -2.000000e+01 -3.236000e+01
      vertex  -1.236000e+01 -2.000000e+01  3.236000e+01
      vertex   4.000000e+01  0.000000e+00  0.000000e+00
    endloop
  endfacet
  facet normal -5.773503e-01  5.773503e-01  5.773503e-01
    outer loop
      vertex  -1.236000e+01 -2.000000e+01  3.236000e+01
      vertex   2.000000e+01  3.236000e+01  1.236000e+01
      vertex  -3.236000e+01  1.236000e+01 -2.000000e+01
    endloop
  endfacet
  facet normal  5.773503e-01  5.773503e-01  5.773503e-01
    outer loop
      vertex   1.236000e+01 -2.000000e+01  3.236000e+01
      vertex   3.236000e+01  1.236000e+01 -2.000000e+01
      vertex  -2.000000e+01  3.236000e+01  1.236000e+01
    endloop
  endfacet
  facet normal -5.773503e-01  5.773503e-01 -5.773503e-01
    outer loop
      vertex  -2.000000e+01 -3.236000e+01  1.236000e+01
      vertex   1.236000e+01  2.000000e+01  3.236000e+01
      vertex   3.236000e+01 -1.236000e+01 -2.000000e+01
    endloop
  endfacet
  facet normal  5.773503e-01  5.773503e-01 -5.773503e-01
    outer loop
      vertex  -1.236000e+01  2.000000e+01  3.236000e+01
      vertex   2.000000e+01 -3.236000e+01  1.236000e+01
      vertex  -3.236000e+01 -1.236000e+01 -2.000000e+01
    endloop
  endfacet
  facet normal  9.341708e-01  0.000000e+00  3.568261e-01
    outer loop
      vertex  -2.000000e+01  3.236000e+01  1.236000e+01
      vertex  -2.000000e+01 -3.236000e+01  1.236000e+01
      vertex   0.000000e+00  0.000000e+00 -4.000000e+01
    endloop
  endfacet
endsolid vcg
