<?xml version="1.0" encoding="UTF-8" standalone="no"?>
<!DOCTYPE svg PUBLIC "-//W3C//DTD SVG 1.1//EN" "http://www.w3.org/Graphics/SVG/1.1/DTD/svg11.dtd">
<svg width="100%" height="100%" viewBox="0 0 2658 2183" version="1.1" xmlns="http://www.w3.org/2000/svg" xmlns:xlink="http://www.w3.org/1999/xlink" xml:space="preserve" xmlns:serif="http://www.serif.com/" style="fill-rule:evenodd;clip-rule:evenodd;">
    <g transform="matrix(4.16667,0,0,4.16667,0,0)">
        <g id="graph0" transform="matrix(0.5,0,0,0.5,2,521.875)">
            <rect x="-4" y="-1043.75" width="1275.75" height="1047.75" style="fill:white;fill-rule:nonzero;"/>
            <g id="node1">
                <g id="a_node1">
                    <g>
                        <rect x="836.5" y="-586.25" width="175" height="116.75" style="fill:rgb(237,213,213);fill-rule:nonzero;stroke:rgb(178,1,0);stroke-width:1px;"/>
                        <g transform="matrix(1,0,0,1,924,-564.2)">
                            <text x="-31.121px" y="0px" style="font-family:'TimesNewRomanPSMT', 'Times New Roman', serif;font-size:19px;">material</text>
                        </g>
                        <g transform="matrix(1,0,0,1,924,-542.45)">
                            <text x="-15.836px" y="0px" style="font-family:'TimesNewRomanPSMT', 'Times New Roman', serif;font-size:19px;">Bvh</text>
                        </g>
                        <g transform="matrix(1,0,0,1,924,-520.7)">
                            <text x="-12.139px" y="0px" style="font-family:'TimesNewRomanPSMT', 'Times New Roman', serif;font-size:19px;">Hit</text>
                        </g>
                        <g transform="matrix(1,0,0,1,924,-498.95)">
                            <text x="-67.813px" y="0px" style="font-family:'TimesNewRomanPSMT', 'Times New Roman', serif;font-size:19px;">535.15s (18.43%)</text>
                        </g>
                        <g transform="matrix(1,0,0,1,924,-477.2)">
                            <text x="-82.851px" y="0px" style="font-family:'TimesNewRomanPSMT', 'Times New Roman', serif;font-size:19px;">of 2808.65s (96.70%)</text>
                        </g>
                    </g>
                </g>
            </g>
            <g id="node3">
                <g id="a_node3">
                    <g>
                        <rect x="410.88" y="-399" width="156.24" height="105.5" style="fill:rgb(237,221,213);fill-rule:nonzero;stroke:rgb(178,59,0);stroke-width:1px;"/>
                        <g transform="matrix(1,0,0,1,489,-378.85)">
                            <text x="-24.076px" y="0px" style="font-family:'TimesNewRomanPSMT', 'Times New Roman', serif;font-size:17px;">objects</text>
                        </g>
                        <g transform="matrix(1,0,0,1,489,-359.35)">
                            <text x="-19.997px" y="0px" style="font-family:'TimesNewRomanPSMT', 'Times New Roman', serif;font-size:17px;">(*T<tspan x="3.951px 9.612px " y="0px 0px ">ri</tspan>)</text>
                        </g>
                        <g transform="matrix(1,0,0,1,489,-339.85)">
                            <text x="-10.862px" y="0px" style="font-family:'TimesNewRomanPSMT', 'Times New Roman', serif;font-size:17px;">Hit</text>
                        </g>
                        <g transform="matrix(1,0,0,1,489,-320.35)">
                            <text x="-60.675px" y="0px" style="font-family:'TimesNewRomanPSMT', 'Times New Roman', serif;font-size:17px;">390.76s (13.45%)</text>
                        </g>
                        <g transform="matrix(1,0,0,1,489,-300.85)">
                            <text x="-69.88px" y="0px" style="font-family:'TimesNewRomanPSMT', 'Times New Roman', serif;font-size:17px;">of 760.34s (26.18%)</text>
                        </g>
                    </g>
                </g>
            </g>
            <g id="edge7">
                <g id="a_edge7">
                    <g>
                        <path d="M836.01,-509C763.38,-492 659.13,-462.35 576,-417.75C569.9,-414.48 563.81,-410.75 557.85,-406.75" style="fill:none;fill-rule:nonzero;stroke:rgb(178,59,0);stroke-width:2px;"/>
                        <path d="M559.95,-403.95L549.76,-401.07L555.92,-409.68L559.95,-403.95Z" style="fill:rgb(178,59,0);fill-rule:nonzero;stroke:rgb(178,59,0);stroke-width:2px;"/>
                    </g>
                </g>
                <g transform="matrix(1,0,0,1,672.62,-438.2)">
                    <g id="a_edge7-label">
                        <g>
                            <text x="-21.974px" y="0px" style="font-family:'TimesNewRomanPSMT', 'Times New Roman', serif;font-size:14px;">760.34s</text>
                        </g>
                    </g>
                </g>
            </g>
            <g id="node4">
                <g id="a_node4">
                    <g>
                        <rect x="584.75" y="-417.75" width="224.5" height="143" style="fill:rgb(237,218,213);fill-rule:nonzero;stroke:rgb(178,37,0);stroke-width:1px;"/>
                        <g transform="matrix(1,0,0,1,697,-390.95)">
                            <text x="-39.311px" y="0px" style="font-family:'TimesNewRomanPSMT', 'Times New Roman', serif;font-size:24px;">material</text>
                        </g>
                        <g transform="matrix(1,0,0,1,697,-363.95)">
                            <text x="-39.984px" y="0px" style="font-family:'TimesNewRomanPSMT', 'Times New Roman', serif;font-size:24px;">(*Aabb)</text>
                        </g>
                        <g transform="matrix(1,0,0,1,697,-336.95)">
                            <text x="-15.334px" y="0px" style="font-family:'TimesNewRomanPSMT', 'Times New Roman', serif;font-size:24px;">Hit</text>
                        </g>
                        <g transform="matrix(1,0,0,1,697,-309.95)">
                            <text x="-91.213px" y="0px" style="font-family:'TimesNewRomanPSMT', 'Times New Roman', serif;font-size:24px;">1265.1<tspan x="-26.104px -14.104px " y="0px 0px ">1s</tspan> (43.56%)</text>
                        </g>
                        <g transform="matrix(1,0,0,1,697,-282.95)">
                            <text x="-104.654px" y="0px" style="font-family:'TimesNewRomanPSMT', 'Times New Roman', serif;font-size:24px;">of 1321.35s (45.50%)</text>
                        </g>
                    </g>
                </g>
            </g>
            <g id="edge6">
                <g id="a_edge6">
                    <g>
                        <path d="M836.34,-480.85C821.7,-471.83 807.05,-461.91 794,-451.5C785.07,-444.38 776.2,-436.43 767.67,-428.18" style="fill:none;fill-rule:nonzero;stroke:rgb(178,37,0);stroke-width:3px;"/>
                        <path d="M770.22,-425.78L760.66,-421.22L765.28,-430.75L770.22,-425.78Z" style="fill:rgb(178,37,0);fill-rule:nonzero;stroke:rgb(178,37,0);stroke-width:3px;"/>
                    </g>
                </g>
                <g transform="matrix(1,0,0,1,821,-438.2)">
                    <g id="a_edge6-label">
                        <g>
                            <text x="-25.474px" y="0px" style="font-family:'TimesNewRomanPSMT', 'Times New Roman', serif;font-size:14px;">1321.35s</text>
                        </g>
                    </g>
                </g>
            </g>
            <g id="node5">
                <g id="a_node5">
                    <g>
                        <rect x="826.88" y="-373.88" width="108.24" height="55.26" style="fill:rgb(237,234,230);fill-rule:nonzero;stroke:rgb(178,157,128);stroke-width:1px;"/>
                        <g transform="matrix(1,0,0,1,881,-356.57)">
                            <text x="-21.772px" y="0px" style="font-family:'TimesNewRomanPSMT', 'Times New Roman', serif;font-size:14px;">runtime</text>
                        </g>
                        <g transform="matrix(1,0,0,1,881,-340.82)">
                            <text x="-24.835px" y="0px" style="font-family:'TimesNewRomanPSMT', 'Times New Roman', serif;font-size:14px;">duﬀcopy</text>
                        </g>
                        <g transform="matrix(1,0,0,1,881,-325.07)">
                            <text x="-46.467px" y="0px" style="font-family:'TimesNewRomanPSMT', 'Times New Roman', serif;font-size:14px;">162.04s (5.58%)</text>
                        </g>
                    </g>
                </g>
            </g>
            <g id="edge8">
                <g id="a_edge8">
                    <g>
                        <path d="M863.91,-469.22C860.28,-463.56 857.14,-457.63 854.75,-451.5C846.31,-429.83 852.3,-404.56 860.68,-384.32" style="fill:none;fill-rule:nonzero;stroke:rgb(178,157,128);stroke-width:1px;"/>
                        <path d="M863.82,-385.89L864.74,-375.33L857.43,-383.01L863.82,-385.89Z" style="fill:rgb(178,157,128);fill-rule:nonzero;stroke:rgb(178,157,128);stroke-width:1px;"/>
                    </g>
                </g>
                <g transform="matrix(1,0,0,1,878.62,-438.2)">
                    <g id="a_edge8-label">
                        <g>
                            <text x="-21.974px" y="0px" style="font-family:'TimesNewRomanPSMT', 'Times New Roman', serif;font-size:14px;">161.29s</text>
                        </g>
                    </g>
                </g>
            </g>
            <g id="node10">
                <g id="a_node10">
                    <g>
                        <rect x="953.62" y="-378.38" width="94.76" height="64.26" style="fill:rgb(237,213,213);fill-rule:nonzero;stroke:rgb(178,2,0);stroke-width:1px;"/>
                        <g transform="matrix(1,0,0,1,1001,-365.82)">
                            <text x="-12.746px" y="0px" style="font-family:'TimesNewRomanPSMT', 'Times New Roman', serif;font-size:9px;">objects</text>
                        </g>
                        <g transform="matrix(1,0,0,1,1001,-354.57)">
                            <text x="-18.749px" y="0px" style="font-family:'TimesNewRomanPSMT', 'Times New Roman', serif;font-size:9px;">RotationY</text>
                        </g>
                        <g transform="matrix(1,0,0,1,1001,-343.32)">
                            <text x="-5.75px" y="0px" style="font-family:'TimesNewRomanPSMT', 'Times New Roman', serif;font-size:9px;">Hit</text>
                        </g>
                        <g transform="matrix(1,0,0,1,1001,-332.07)">
                            <text x="-25.372px" y="0px" style="font-family:'TimesNewRomanPSMT', 'Times New Roman', serif;font-size:9px;">4.71s (0.16%)</text>
                        </g>
                        <g transform="matrix(1,0,0,1,1001,-320.82)">
                            <text x="-39.245px" y="0px" style="font-family:'TimesNewRomanPSMT', 'Times New Roman', serif;font-size:9px;">of 2775.03s (95.55%)</text>
                        </g>
                    </g>
                </g>
            </g>
            <g id="edge4">
                <g id="a_edge4">
                    <g>
                        <path d="M917.77,-469.02C918.43,-457.64 920.5,-446.04 925,-435.75C929.65,-425.09 936.1,-426.29 944,-417.75C951.77,-409.34 959.73,-400.03 967.13,-390.99" style="fill:none;fill-rule:nonzero;stroke:rgb(178,2,0);stroke-width:5px;"/>
                        <path d="M970.39,-393.92L973.26,-383.39L963.58,-388.43L970.39,-393.92Z" style="fill:rgb(178,2,0);fill-rule:nonzero;stroke:rgb(178,2,0);stroke-width:5px;"/>
                    </g>
                </g>
                <g transform="matrix(1,0,0,1,952,-438.2)">
                    <g id="a_edge4-label">
                        <g>
                            <text x="-25.474px" y="0px" style="font-family:'TimesNewRomanPSMT', 'Times New Roman', serif;font-size:14px;">2775.03s</text>
                        </g>
                    </g>
                </g>
            </g>
            <g id="node18">
                <g id="a_node18">
                    <g>
                        <rect x="1066.25" y="-378.38" width="83.5" height="64.26" style="fill:rgb(237,236,236);fill-rule:nonzero;stroke:rgb(178,177,172);stroke-width:1px;"/>
                        <g transform="matrix(1,0,0,1,1108,-364.88)">
                            <text x="-14.163px" y="0px" style="font-family:'TimesNewRomanPSMT', 'Times New Roman', serif;font-size:10px;">objects</text>
                        </g>
                        <g transform="matrix(1,0,0,1,1108,-353.62)">
                            <text x="-19.714px" y="0px" style="font-family:'TimesNewRomanPSMT', 'Times New Roman', serif;font-size:10px;">(*Sphere)</text>
                        </g>
                        <g transform="matrix(1,0,0,1,1108,-342.38)">
                            <text x="-6.389px" y="0px" style="font-family:'TimesNewRomanPSMT', 'Times New Roman', serif;font-size:10px;">Hit</text>
                        </g>
                        <g transform="matrix(1,0,0,1,1108,-331.12)">
                            <text x="-28.191px" y="0px" style="font-family:'TimesNewRomanPSMT', 'Times New Roman', serif;font-size:10px;">7.18s (0.25%)</text>
                        </g>
                        <g transform="matrix(1,0,0,1,1108,-319.88)">
                            <text x="-36.106px" y="0px" style="font-family:'TimesNewRomanPSMT', 'Times New Roman', serif;font-size:10px;">of 19.67s (0.68%)</text>
                        </g>
                    </g>
                </g>
            </g>
            <g id="edge17">
                <g id="a_edge17">
                    <g>
                        <path d="M1011.77,-477.07C1022.52,-469.21 1032.91,-460.63 1042,-451.5C1060.23,-433.19 1075.94,-408.99 1087.45,-388.52" style="fill:none;fill-rule:nonzero;stroke:rgb(178,177,172);stroke-width:1px;"/>
                        <path d="M1090.47,-390.29L1092.19,-379.83L1084.32,-386.93L1090.47,-390.29Z" style="fill:rgb(178,177,172);fill-rule:nonzero;stroke:rgb(178,177,172);stroke-width:1px;"/>
                    </g>
                </g>
                <g transform="matrix(1,0,0,1,1075.25,-438.2)">
                    <g id="a_edge17-label">
                        <g>
                            <text x="-18.474px" y="0px" style="font-family:'TimesNewRomanPSMT', 'Times New Roman', serif;font-size:14px;">19.67s</text>
                        </g>
                    </g>
                </g>
            </g>
            <g id="node2">
                <g id="a_node2">
                    <g>
                        <rect x="874" y="-961" width="100" height="39.5" style="fill:rgb(237,213,213);fill-rule:nonzero;stroke:rgb(178,0,0);stroke-width:1px;"/>
                        <g transform="matrix(1,0,0,1,924,-949.4)">
                            <text x="-11.33px" y="0px" style="font-family:'TimesNewRomanPSMT', 'Times New Roman', serif;font-size:8px;">objects</text>
                        </g>
                        <g transform="matrix(1,0,0,1,924,-938.9)">
                            <text x="-11.328px" y="0px" style="font-family:'TimesNewRomanPSMT', 'Times New Roman', serif;font-size:8px;">worker</text>
                        </g>
                        <g transform="matrix(1,0,0,1,924,-928.4)">
                            <text x="-37.885px" y="0px" style="font-family:'TimesNewRomanPSMT', 'Times New Roman', serif;font-size:8px;">0 of 2860.86s (98.50%)</text>
                        </g>
                    </g>
                </g>
            </g>
            <g id="node13">
                <g id="a_node13">
                    <g>
                        <rect x="876.62" y="-807" width="94.76" height="64.25" style="fill:rgb(237,213,213);fill-rule:nonzero;stroke:rgb(178,0,0);stroke-width:1px;"/>
                        <g transform="matrix(1,0,0,1,924,-794.45)">
                            <text x="-12.746px" y="0px" style="font-family:'TimesNewRomanPSMT', 'Times New Roman', serif;font-size:9px;">objects</text>
                        </g>
                        <g transform="matrix(1,0,0,1,924,-783.2)">
                            <text x="-19.239px" y="0px" style="font-family:'TimesNewRomanPSMT', 'Times New Roman', serif;font-size:9px;">(*Camera)</text>
                        </g>
                        <g transform="matrix(1,0,0,1,924,-771.95)">
                            <text x="-23.493px" y="0px" style="font-family:'TimesNewRomanPSMT', 'Times New Roman', serif;font-size:9px;">renderChunk</text>
                        </g>
                        <g transform="matrix(1,0,0,1,924,-760.7)">
                            <text x="-27.622px" y="0px" style="font-family:'TimesNewRomanPSMT', 'Times New Roman', serif;font-size:9px;">1.42s (0.049%)</text>
                        </g>
                        <g transform="matrix(1,0,0,1,924,-749.45)">
                            <text x="-39.245px" y="0px" style="font-family:'TimesNewRomanPSMT', 'Times New Roman', serif;font-size:9px;">of 2860.86s (98.50%)</text>
                        </g>
                    </g>
                </g>
            </g>
            <g id="edge1">
                <g id="a_edge1">
                    <g>
                        <path d="M924,-921.07L924,-823.34" style="fill:none;fill-rule:nonzero;stroke:rgb(178,0,0);stroke-width:5px;"/>
                        <path d="M928.38,-823.52L924,-813.52L919.63,-823.52L928.38,-823.52Z" style="fill:rgb(178,0,0);fill-rule:nonzero;stroke:rgb(178,0,0);stroke-width:5px;"/>
                    </g>
                </g>
                <g transform="matrix(1,0,0,1,951,-827.45)">
                    <g id="a_edge1-label">
                        <g>
                            <text x="-25.474px" y="0px" style="font-family:'TimesNewRomanPSMT', 'Times New Roman', serif;font-size:14px;">2860.86s</text>
                        </g>
                    </g>
                </g>
            </g>
            <g id="node6">
                <g id="a_node6">
                    <g>
                        <rect x="291" y="-196.38" width="118" height="65" style="fill:rgb(237,235,232);fill-rule:nonzero;stroke:rgb(178,163,140);stroke-width:1px;"/>
                        <g transform="matrix(1,0,0,1,350,-180.03)">
                            <text x="-22.747px" y="0px" style="font-family:'TimesNewRomanPSMT', 'Times New Roman', serif;font-size:13px;">common</text>
                        </g>
                        <g transform="matrix(1,0,0,1,350,-165.78)">
                            <text x="-9.75px" y="0px" style="font-family:'TimesNewRomanPSMT', 'Times New Roman', serif;font-size:13px;">Dot</text>
                        </g>
                        <g transform="matrix(1,0,0,1,350,-151.53)">
                            <text x="-43.148px" y="0px" style="font-family:'TimesNewRomanPSMT', 'Times New Roman', serif;font-size:13px;">123.26s (4.24%)</text>
                        </g>
                        <g transform="matrix(1,0,0,1,350,-137.28)">
                            <text x="-50.188px" y="0px" style="font-family:'TimesNewRomanPSMT', 'Times New Roman', serif;font-size:13px;">of 123.39s (4.25%)</text>
                        </g>
                    </g>
                </g>
            </g>
            <g id="edge10">
                <g id="a_edge10">
                    <g>
                        <path d="M448.8,-293.08C427.35,-265.25 401.35,-231.51 381.41,-205.63" style="fill:none;fill-rule:nonzero;stroke:rgb(178,164,141);stroke-width:1px;stroke-dasharray:1,5;"/>
                        <path d="M384.42,-203.81L375.55,-198.02L378.88,-208.08L384.42,-203.81Z" style="fill:rgb(178,164,141);fill-rule:nonzero;stroke:rgb(178,164,141);stroke-width:1px;"/>
                    </g>
                </g>
                <g id="a_edge10-label">
                    <g>
                        <g transform="matrix(1,0,0,1,443.62,-243.45)">
                            <text x="-21.974px" y="0px" style="font-family:'TimesNewRomanPSMT', 'Times New Roman', serif;font-size:14px;">122.03s</text>
                        </g>
                        <g transform="matrix(1,0,0,1,443.62,-227.7)">
                            <text x="-20.604px" y="0px" style="font-family:'TimesNewRomanPSMT', 'Times New Roman', serif;font-size:14px;">(inline)</text>
                        </g>
                    </g>
                </g>
            </g>
            <g id="node7">
                <g id="a_node7">
                    <g>
                        <rect x="427" y="-207.25" width="124" height="86.75" style="fill:rgb(237,235,231);fill-rule:nonzero;stroke:rgb(178,163,139);stroke-width:1px;"/>
                        <g transform="matrix(1,0,0,1,489,-189.95)">
                            <text x="-24.497px" y="0px" style="font-family:'TimesNewRomanPSMT', 'Times New Roman', serif;font-size:14px;">common</text>
                        </g>
                        <g transform="matrix(1,0,0,1,489,-174.2)">
                            <text x="-29.928px" y="0px" style="font-family:'TimesNewRomanPSMT', 'Times New Roman', serif;font-size:14px;">(*Interval)</text>
                        </g>
                        <g transform="matrix(1,0,0,1,489,-158.45)">
                            <text x="-24.89px" y="0px" style="font-family:'TimesNewRomanPSMT', 'Times New Roman', serif;font-size:14px;">Contains</text>
                        </g>
                        <g transform="matrix(1,0,0,1,489,-142.7)">
                            <text x="-46.467px" y="0px" style="font-family:'TimesNewRomanPSMT', 'Times New Roman', serif;font-size:14px;">126.76s (4.36%)</text>
                        </g>
                        <g transform="matrix(1,0,0,1,489,-126.95)">
                            <text x="-54.048px" y="0px" style="font-family:'TimesNewRomanPSMT', 'Times New Roman', serif;font-size:14px;">of 126.86s (4.37%)</text>
                        </g>
                    </g>
                </g>
            </g>
            <g id="edge9">
                <g id="a_edge9">
                    <g>
                        <path d="M489,-293.08L489,-218.72" style="fill:none;fill-rule:nonzero;stroke:rgb(178,163,139);stroke-width:1px;"/>
                        <path d="M492.5,-219.03L489,-209.03L485.5,-219.03L492.5,-219.03Z" style="fill:rgb(178,163,139);fill-rule:nonzero;stroke:rgb(178,163,139);stroke-width:1px;"/>
                    </g>
                </g>
                <g id="a_edge9-label">
                    <g>
                        <g transform="matrix(1,0,0,1,512.62,-243.45)">
                            <text x="-21.974px" y="0px" style="font-family:'TimesNewRomanPSMT', 'Times New Roman', serif;font-size:14px;">126.86s</text>
                        </g>
                        <g transform="matrix(1,0,0,1,512.62,-227.7)">
                            <text x="-20.604px" y="0px" style="font-family:'TimesNewRomanPSMT', 'Times New Roman', serif;font-size:14px;">(inline)</text>
                        </g>
                    </g>
                </g>
            </g>
            <g id="node12">
                <g id="a_node12">
                    <g>
                        <rect x="569.25" y="-199.75" width="95.5" height="71.75" style="fill:rgb(237,236,235);fill-rule:nonzero;stroke:rgb(178,174,165);stroke-width:1px;"/>
                        <g transform="matrix(1,0,0,1,617,-185.3)">
                            <text x="-19.247px" y="0px" style="font-family:'TimesNewRomanPSMT', 'Times New Roman', serif;font-size:11px;">common</text>
                        </g>
                        <g transform="matrix(1,0,0,1,617,-172.55)">
                            <text x="-15.273px" y="0px" style="font-family:'TimesNewRomanPSMT', 'Times New Roman', serif;font-size:11px;">(*Ray)</text>
                        </g>
                        <g transform="matrix(1,0,0,1,617,-159.8)">
                            <text x="-5.5px" y="0px" style="font-family:'TimesNewRomanPSMT', 'Times New Roman', serif;font-size:11px;">At</text>
                        </g>
                        <g transform="matrix(1,0,0,1,617,-147.05)">
                            <text x="-33.76px" y="0px" style="font-family:'TimesNewRomanPSMT', 'Times New Roman', serif;font-size:11px;">25.61s (0.88%)</text>
                        </g>
                        <g transform="matrix(1,0,0,1,617,-134.3)">
                            <text x="-39.717px" y="0px" style="font-family:'TimesNewRomanPSMT', 'Times New Roman', serif;font-size:11px;">of 41.91s (1.44%)</text>
                        </g>
                    </g>
                </g>
            </g>
            <g id="edge13">
                <g id="a_edge13">
                    <g>
                        <path d="M526.02,-293.08C544.81,-266.6 567.4,-234.77 585.37,-209.45" style="fill:none;fill-rule:nonzero;stroke:rgb(178,174,165);stroke-width:1px;"/>
                        <path d="M588.2,-211.5L591.13,-201.32L582.49,-207.45L588.2,-211.5Z" style="fill:rgb(178,174,165);fill-rule:nonzero;stroke:rgb(178,174,165);stroke-width:1px;"/>
                    </g>
                </g>
                <g id="a_edge13-label">
                    <g>
                        <g transform="matrix(1,0,0,1,592.62,-243.45)">
                            <text x="-18.474px" y="0px" style="font-family:'TimesNewRomanPSMT', 'Times New Roman', serif;font-size:14px;">40.92s</text>
                        </g>
                        <g transform="matrix(1,0,0,1,592.62,-227.7)">
                            <text x="-20.604px" y="0px" style="font-family:'TimesNewRomanPSMT', 'Times New Roman', serif;font-size:14px;">(inline)</text>
                        </g>
                    </g>
                </g>
            </g>
            <g id="node17">
                <g id="a_node17">
                    <g>
                        <rect x="683.25" y="-190.38" width="83.5" height="53" style="fill:rgb(237,236,235);fill-rule:nonzero;stroke:rgb(178,173,163);stroke-width:1px;"/>
                        <g transform="matrix(1,0,0,1,725,-176.88)">
                            <text x="-9.998px" y="0px" style="font-family:'TimesNewRomanPSMT', 'Times New Roman', serif;font-size:10px;">math</text>
                        </g>
                        <g transform="matrix(1,0,0,1,725,-165.62)">
                            <text x="-8.057px" y="0px" style="font-family:'TimesNewRomanPSMT', 'Times New Roman', serif;font-size:10px;">Abs</text>
                        </g>
                        <g transform="matrix(1,0,0,1,725,-154.38)">
                            <text x="-28.191px" y="0px" style="font-family:'TimesNewRomanPSMT', 'Times New Roman', serif;font-size:10px;">7.31s (0.25%)</text>
                        </g>
                        <g transform="matrix(1,0,0,1,725,-143.12)">
                            <text x="-36.106px" y="0px" style="font-family:'TimesNewRomanPSMT', 'Times New Roman', serif;font-size:10px;">of 49.65s (1.71%)</text>
                        </g>
                    </g>
                </g>
            </g>
            <g id="edge12">
                <g id="a_edge12">
                    <g>
                        <path d="M549.28,-293.04C557.98,-286.51 567.04,-280.21 576,-274.75C592.99,-264.39 600.13,-267.31 617,-256.75C643.66,-240.06 670.6,-217.15 690.91,-198.38" style="fill:none;fill-rule:nonzero;stroke:rgb(178,173,163);stroke-width:1px;"/>
                        <path d="M693.18,-201.05L698.09,-191.66L688.4,-195.95L693.18,-201.05Z" style="fill:rgb(178,173,163);fill-rule:nonzero;stroke:rgb(178,173,163);stroke-width:1px;"/>
                    </g>
                </g>
                <g id="a_edge12-label">
                    <g>
                        <g transform="matrix(1,0,0,1,678.62,-243.45)">
                            <text x="-18.474px" y="0px" style="font-family:'TimesNewRomanPSMT', 'Times New Roman', serif;font-size:14px;">49.65s</text>
                        </g>
                        <g transform="matrix(1,0,0,1,678.62,-227.7)">
                            <text x="-20.604px" y="0px" style="font-family:'TimesNewRomanPSMT', 'Times New Roman', serif;font-size:14px;">(inline)</text>
                        </g>
                    </g>
                </g>
            </g>
            <g id="node9">
                <g id="a_node9">
                    <g>
                        <rect x="784.62" y="-203.5" width="100.76" height="79.25" style="fill:rgb(237,236,234);fill-rule:nonzero;stroke:rgb(178,173,161);stroke-width:1px;"/>
                        <g transform="matrix(1,0,0,1,835,-188.1)">
                            <text x="-19.655px" y="0px" style="font-family:'TimesNewRomanPSMT', 'Times New Roman', serif;font-size:12px;">material</text>
                        </g>
                        <g transform="matrix(1,0,0,1,835,-173.85)">
                            <text x="-19.992px" y="0px" style="font-family:'TimesNewRomanPSMT', 'Times New Roman', serif;font-size:12px;">(*Aabb)</text>
                        </g>
                        <g transform="matrix(1,0,0,1,835,-159.6)">
                            <text x="-32.66px" y="0px" style="font-family:'TimesNewRomanPSMT', 'Times New Roman', serif;font-size:12px;">Axis_interval</text>
                        </g>
                        <g transform="matrix(1,0,0,1,835,-145.35)">
                            <text x="-36.829px" y="0px" style="font-family:'TimesNewRomanPSMT', 'Times New Roman', serif;font-size:12px;">55.45s (1.91%)</text>
                        </g>
                        <g transform="matrix(1,0,0,1,835,-131.1)">
                            <text x="-43.327px" y="0px" style="font-family:'TimesNewRomanPSMT', 'Times New Roman', serif;font-size:12px;">of 55.49s (1.91%)</text>
                        </g>
                    </g>
                </g>
            </g>
            <g id="edge11">
                <g id="a_edge11">
                    <g>
                        <path d="M751.15,-274.48C766.91,-253.87 783.77,-231.84 798.2,-212.97" style="fill:none;fill-rule:nonzero;stroke:rgb(178,173,161);stroke-width:1px;"/>
                        <path d="M800.86,-215.26L804.16,-205.19L795.3,-211L800.86,-215.26Z" style="fill:rgb(178,173,161);fill-rule:nonzero;stroke:rgb(178,173,161);stroke-width:1px;"/>
                    </g>
                </g>
                <g id="a_edge11-label">
                    <g>
                        <g transform="matrix(1,0,0,1,807.62,-243.45)">
                            <text x="-18.474px" y="0px" style="font-family:'TimesNewRomanPSMT', 'Times New Roman', serif;font-size:14px;">55.49s</text>
                        </g>
                        <g transform="matrix(1,0,0,1,807.62,-227.7)">
                            <text x="-20.604px" y="0px" style="font-family:'TimesNewRomanPSMT', 'Times New Roman', serif;font-size:14px;">(inline)</text>
                        </g>
                    </g>
                </g>
            </g>
            <g id="node8">
                <g id="a_node8">
                    <g>
                        <rect x="876.62" y="-691" width="94.76" height="53" style="fill:rgb(237,213,213);fill-rule:nonzero;stroke:rgb(178,1,0);stroke-width:1px;"/>
                        <g transform="matrix(1,0,0,1,924,-678.45)">
                            <text x="-12.746px" y="0px" style="font-family:'TimesNewRomanPSMT', 'Times New Roman', serif;font-size:9px;">objects</text>
                        </g>
                        <g transform="matrix(1,0,0,1,924,-667.2)">
                            <text x="-17.242px" y="0px" style="font-family:'TimesNewRomanPSMT', 'Times New Roman', serif;font-size:9px;">ray_color</text>
                        </g>
                        <g transform="matrix(1,0,0,1,924,-655.95)">
                            <text x="-27.622px" y="0px" style="font-family:'TimesNewRomanPSMT', 'Times New Roman', serif;font-size:9px;">2.71s (0.093%)</text>
                        </g>
                        <g transform="matrix(1,0,0,1,924,-644.7)">
                            <text x="-39.245px" y="0px" style="font-family:'TimesNewRomanPSMT', 'Times New Roman', serif;font-size:9px;">of 2847.07s (98.03%)</text>
                        </g>
                    </g>
                </g>
            </g>
            <g id="edge3">
                <g id="a_edge3">
                    <g>
                        <path d="M924,-637.54L924,-602.48" style="fill:none;fill-rule:nonzero;stroke:rgb(178,1,0);stroke-width:5px;"/>
                        <path d="M928.38,-602.77L924,-592.77L919.63,-602.77L928.38,-602.77Z" style="fill:rgb(178,1,0);fill-rule:nonzero;stroke:rgb(178,1,0);stroke-width:5px;"/>
                    </g>
                </g>
                <g transform="matrix(1,0,0,1,951,-606.7)">
                    <g id="a_edge3-label">
                        <g>
                            <text x="-25.474px" y="0px" style="font-family:'TimesNewRomanPSMT', 'Times New Roman', serif;font-size:14px;">2808.65s</text>
                        </g>
                    </g>
                </g>
            </g>
            <g id="node14">
                <g id="a_node14">
                    <g>
                        <rect x="1137.38" y="-190.38" width="81.24" height="53" style="fill:rgb(237,236,235);fill-rule:nonzero;stroke:rgb(178,176,169);stroke-width:1px;"/>
                        <g transform="matrix(1,0,0,1,1178,-177.82)">
                            <text x="-13.997px" y="0px" style="font-family:'TimesNewRomanPSMT', 'Times New Roman', serif;font-size:9px;">runtime</text>
                        </g>
                        <g transform="matrix(1,0,0,1,1178,-166.57)">
                            <text x="-18.492px" y="0px" style="font-family:'TimesNewRomanPSMT', 'Times New Roman', serif;font-size:9px;">newobject</text>
                        </g>
                        <g transform="matrix(1,0,0,1,1178,-155.32)">
                            <text x="-27.622px" y="0px" style="font-family:'TimesNewRomanPSMT', 'Times New Roman', serif;font-size:9px;">1.91s (0.066%)</text>
                        </g>
                        <g transform="matrix(1,0,0,1,1178,-144.07)">
                            <text x="-32.495px" y="0px" style="font-family:'TimesNewRomanPSMT', 'Times New Roman', serif;font-size:9px;">of 29.50s (1.02%)</text>
                        </g>
                    </g>
                </g>
            </g>
            <g id="edge16">
                <g id="a_edge16">
                    <g>
                        <path d="M962.94,-637.8C1018.83,-598.27 1119.42,-516.68 1159,-417.75C1187.84,-345.66 1185.96,-252.88 1182,-202.14" style="fill:none;fill-rule:nonzero;stroke:rgb(178,177,171);stroke-width:1px;"/>
                        <path d="M1185.5,-201.94L1181.15,-192.28L1178.52,-202.55L1185.5,-201.94Z" style="fill:rgb(178,177,171);fill-rule:nonzero;stroke:rgb(178,177,171);stroke-width:1px;"/>
                    </g>
                </g>
                <g transform="matrix(1,0,0,1,1170.25,-438.2)">
                    <g id="a_edge16-label">
                        <g>
                            <text x="-18.474px" y="0px" style="font-family:'TimesNewRomanPSMT', 'Times New Roman', serif;font-size:14px;">21.29s</text>
                        </g>
                    </g>
                </g>
            </g>
            <g id="edge5">
                <g id="a_edge5">
                    <g>
                        <path d="M997.91,-378.42C994.97,-399.71 989.39,-428.18 979,-451.5C978.51,-452.61 977.99,-453.72 977.46,-454.83" style="fill:none;fill-rule:nonzero;stroke:rgb(178,2,0);stroke-width:5px;"/>
                        <path d="M973.63,-452.72L972.72,-463.6L981.33,-456.88L973.63,-452.72Z" style="fill:rgb(178,2,0);fill-rule:nonzero;stroke:rgb(178,2,0);stroke-width:5px;"/>
                    </g>
                </g>
                <g transform="matrix(1,0,0,1,1011,-438.2)">
                    <g id="a_edge5-label">
                        <g>
                            <text x="-25.474px" y="0px" style="font-family:'TimesNewRomanPSMT', 'Times New Roman', serif;font-size:14px;">2765.28s</text>
                        </g>
                    </g>
                </g>
            </g>
            <g id="edge18">
                <g id="a_edge18">
                    <g>
                        <path d="M1024.21,-313.81C1033.91,-301.28 1045.57,-286.96 1057,-274.75C1082.56,-247.44 1113.88,-219.13 1138.25,-198.08" style="fill:none;fill-rule:nonzero;stroke:rgb(178,178,177);stroke-width:1px;"/>
                        <path d="M1140.43,-200.82L1145.74,-191.66L1135.87,-195.51L1140.43,-200.82Z" style="fill:rgb(178,178,177);fill-rule:nonzero;stroke:rgb(178,178,177);stroke-width:1px;"/>
                    </g>
                </g>
                <g transform="matrix(1,0,0,1,1121.88,-235.57)">
                    <g id="a_edge18-label">
                        <g>
                            <text x="-14.974px" y="0px" style="font-family:'TimesNewRomanPSMT', 'Times New Roman', serif;font-size:14px;">4.66s</text>
                        </g>
                    </g>
                </g>
            </g>
            <g id="node11">
                <g id="a_node11">
                    <g>
                        <rect x="683.25" y="-49.62" width="83.5" height="46.24" style="fill:rgb(237,236,235);fill-rule:nonzero;stroke:rgb(178,175,166);stroke-width:1px;"/>
                        <g transform="matrix(1,0,0,1,725,-35.17)">
                            <text x="-10.997px" y="0px" style="font-family:'TimesNewRomanPSMT', 'Times New Roman', serif;font-size:11px;">math</text>
                        </g>
                        <g transform="matrix(1,0,0,1,725,-22.43)">
                            <text x="-24.753px" y="0px" style="font-family:'TimesNewRomanPSMT', 'Times New Roman', serif;font-size:11px;">Float64bits</text>
                        </g>
                        <g transform="matrix(1,0,0,1,725,-9.68)">
                            <text x="-33.76px" y="0px" style="font-family:'TimesNewRomanPSMT', 'Times New Roman', serif;font-size:11px;">37.65s (1.30%)</text>
                        </g>
                    </g>
                </g>
            </g>
            <g id="edge2">
                <g id="a_edge2">
                    <g>
                        <path d="M924,-742.53L924,-707.53" style="fill:none;fill-rule:nonzero;stroke:rgb(178,1,0);stroke-width:5px;"/>
                        <path d="M928.38,-707.54L924,-697.54L919.63,-707.54L928.38,-707.54Z" style="fill:rgb(178,1,0);fill-rule:nonzero;stroke:rgb(178,1,0);stroke-width:5px;"/>
                    </g>
                </g>
                <g transform="matrix(1,0,0,1,951,-711.45)">
                    <g id="a_edge2-label">
                        <g>
                            <text x="-25.474px" y="0px" style="font-family:'TimesNewRomanPSMT', 'Times New Roman', serif;font-size:14px;">2847.07s</text>
                        </g>
                    </g>
                </g>
            </g>
            <g id="edge19">
                <g id="a_edge19">
                    <g>
                        <path d="M971.76,-767.31C1058.72,-754 1234,-720.38 1234,-665.5L1234,-345.25C1234,-293.4 1212.63,-236.78 1196.29,-201.06" style="fill:none;fill-rule:nonzero;stroke:rgb(178,178,177);stroke-width:1px;"/>
                        <path d="M1199.48,-199.61L1192.06,-192.05L1193.14,-202.59L1199.48,-199.61Z" style="fill:rgb(178,178,177);fill-rule:nonzero;stroke:rgb(178,178,177);stroke-width:1px;"/>
                    </g>
                </g>
                <g transform="matrix(1,0,0,1,1250.88,-522.45)">
                    <g id="a_edge19-label">
                        <g>
                            <text x="-14.974px" y="0px" style="font-family:'TimesNewRomanPSMT', 'Times New Roman', serif;font-size:14px;">3.45s</text>
                        </g>
                    </g>
                </g>
            </g>
            <g id="node15">
                <g id="a_node15">
                    <g>
                        <rect x="1141.88" y="-53" width="72.24" height="53" style="fill:rgb(237,236,235);fill-rule:nonzero;stroke:rgb(178,176,169);stroke-width:1px;"/>
                        <g transform="matrix(1,0,0,1,1178,-39.5)">
                            <text x="-15.552px" y="0px" style="font-family:'TimesNewRomanPSMT', 'Times New Roman', serif;font-size:10px;">runtime</text>
                        </g>
                        <g transform="matrix(1,0,0,1,1178,-28.25)">
                            <text x="-18.325px" y="0px" style="font-family:'TimesNewRomanPSMT', 'Times New Roman', serif;font-size:10px;">mallocgc</text>
                        </g>
                        <g transform="matrix(1,0,0,1,1178,-17)">
                            <text x="-28.191px" y="0px" style="font-family:'TimesNewRomanPSMT', 'Times New Roman', serif;font-size:10px;">7.98s (0.27%)</text>
                        </g>
                        <g transform="matrix(1,0,0,1,1178,-5.75)">
                            <text x="-29.856px" y="0px" style="font-family:'TimesNewRomanPSMT', 'Times New Roman', serif;font-size:10px;">of 30s (1.03%)</text>
                        </g>
                    </g>
                </g>
            </g>
            <g id="edge15">
                <g id="a_edge15">
                    <g>
                        <path d="M1178,-137.09L1178,-64.6" style="fill:none;fill-rule:nonzero;stroke:rgb(178,176,170);stroke-width:1px;"/>
                        <path d="M1181.5,-64.7L1178,-54.7L1174.5,-64.7L1181.5,-64.7Z" style="fill:rgb(178,176,170);fill-rule:nonzero;stroke:rgb(178,176,170);stroke-width:1px;"/>
                    </g>
                </g>
                <g transform="matrix(1,0,0,1,1198.25,-81.33)">
                    <g id="a_edge15-label">
                        <g>
                            <text x="-18.474px" y="0px" style="font-family:'TimesNewRomanPSMT', 'Times New Roman', serif;font-size:14px;">27.56s</text>
                        </g>
                    </g>
                </g>
            </g>
            <g id="node16">
                <g id="a_node16">
                    <g>
                        <rect x="991.62" y="-967.75" width="76.76" height="53" style="fill:rgb(237,237,236);fill-rule:nonzero;stroke:rgb(178,177,174);stroke-width:1px;"/>
                        <g transform="matrix(1,0,0,1,1030,-955.2)">
                            <text x="-13.997px" y="0px" style="font-family:'TimesNewRomanPSMT', 'Times New Roman', serif;font-size:9px;">runtime</text>
                        </g>
                        <g transform="matrix(1,0,0,1,1030,-943.95)">
                            <text x="-16.743px" y="0px" style="font-family:'TimesNewRomanPSMT', 'Times New Roman', serif;font-size:9px;">newstack</text>
                        </g>
                        <g transform="matrix(1,0,0,1,1030,-932.7)">
                            <text x="-27.622px" y="0px" style="font-family:'TimesNewRomanPSMT', 'Times New Roman', serif;font-size:9px;">0.35s (0.012%)</text>
                        </g>
                        <g transform="matrix(1,0,0,1,1030,-921.45)">
                            <text x="-30.245px" y="0px" style="font-family:'TimesNewRomanPSMT', 'Times New Roman', serif;font-size:9px;">of 14.60s (0.5%)</text>
                        </g>
                    </g>
                </g>
            </g>
            <g id="edge14">
                <g id="a_edge14">
                    <g>
                        <path d="M725,-137.09L725,-61.23" style="fill:none;fill-rule:nonzero;stroke:rgb(178,175,166);stroke-width:1px;"/>
                        <path d="M728.5,-61.55L725,-51.55L721.5,-61.55L728.5,-61.55Z" style="fill:rgb(178,175,166);fill-rule:nonzero;stroke:rgb(178,175,166);stroke-width:1px;"/>
                    </g>
                </g>
                <g id="a_edge14-label">
                    <g>
                        <g transform="matrix(1,0,0,1,745.62,-89.2)">
                            <text x="-18.474px" y="0px" style="font-family:'TimesNewRomanPSMT', 'Times New Roman', serif;font-size:14px;">37.65s</text>
                        </g>
                        <g transform="matrix(1,0,0,1,745.62,-73.45)">
                            <text x="-20.604px" y="0px" style="font-family:'TimesNewRomanPSMT', 'Times New Roman', serif;font-size:14px;">(inline)</text>
                        </g>
                    </g>
                </g>
            </g>
            <g id="node19">
                <g id="a_node19">
                    <g>
                        <rect x="1086.38" y="-967.75" width="81.24" height="53" style="fill:rgb(237,236,236);fill-rule:nonzero;stroke:rgb(178,177,172);stroke-width:1px;"/>
                        <g transform="matrix(1,0,0,1,1127,-955.2)">
                            <text x="-13.997px" y="0px" style="font-family:'TimesNewRomanPSMT', 'Times New Roman', serif;font-size:9px;">runtime</text>
                        </g>
                        <g transform="matrix(1,0,0,1,1127,-943.95)">
                            <text x="-21.746px" y="0px" style="font-family:'TimesNewRomanPSMT', 'Times New Roman', serif;font-size:9px;">systemstack</text>
                        </g>
                        <g transform="matrix(1,0,0,1,1127,-932.7)">
                            <text x="-29.872px" y="0px" style="font-family:'TimesNewRomanPSMT', 'Times New Roman', serif;font-size:9px;">0.17s (0.0059%)</text>
                        </g>
                        <g transform="matrix(1,0,0,1,1127,-921.45)">
                            <text x="-32.495px" y="0px" style="font-family:'TimesNewRomanPSMT', 'Times New Roman', serif;font-size:9px;">of 18.25s (0.63%)</text>
                        </g>
                    </g>
                </g>
            </g>
        </g>
    </g>
</svg>
